<svg width="185" height="62" viewBox="0 0 185 62" fill="none" xmlns="http://www.w3.org/2000/svg">
<path d="M0.664001 47V21.44H11.5C12.676 21.44 13.756 21.68 14.74 22.16C15.748 22.64 16.612 23.288 17.332 24.104C18.052 24.92 18.616 25.832 19.024 26.84C19.432 27.848 19.636 28.88 19.636 29.936C19.636 31.376 19.3 32.744 18.628 34.04C17.956 35.336 17.02 36.392 15.82 37.208C14.644 38.024 13.264 38.432 11.68 38.432H5.632V47H0.664001ZM5.632 34.076H11.392C12.304 34.076 13.06 33.704 13.66 32.96C14.284 32.192 14.596 31.184 14.596 29.936C14.596 28.616 14.248 27.596 13.552 26.876C12.856 26.156 12.064 25.796 11.176 25.796H5.632V34.076Z" fill="black"/>
<path d="M27.0537 47V21.44H32.0217V42.644H45.0537V47H27.0537Z" fill="black"/>
<path d="M58.9851 21.44H64.0251L73.4211 47H68.3091L65.9331 40.628H57.0051L54.6651 47H49.5531L58.9851 21.44ZM65.0331 37.136L61.5051 26.588L57.8331 37.136H65.0331Z" fill="black"/>
<path d="M85.1526 30.584V47H80.1846V21.44H84.1446L97.3566 38.288V21.476H102.325V47H98.1846L85.1526 30.584Z" fill="black"/>
<path d="M155.599 42.644V47H137.851V21.44H155.275V25.796H142.819V31.952H153.583V35.984H142.819V42.644H155.599Z" fill="black"/>
<path d="M163.432 47V21.44H174.736C175.912 21.44 176.992 21.68 177.976 22.16C178.984 22.64 179.848 23.288 180.568 24.104C181.312 24.92 181.876 25.832 182.26 26.84C182.668 27.848 182.872 28.88 182.872 29.936C182.872 31.568 182.452 33.068 181.612 34.436C180.796 35.804 179.68 36.788 178.264 37.388L184.096 47H178.624L173.368 38.432H168.4V47H163.432ZM168.4 34.076H174.628C175.564 34.076 176.332 33.68 176.932 32.888C177.556 32.072 177.868 31.088 177.868 29.936C177.868 29.144 177.7 28.436 177.364 27.812C177.028 27.188 176.596 26.696 176.068 26.336C175.564 25.976 175.012 25.796 174.412 25.796H168.4V34.076Z" fill="black"/>
<path d="M121.171 59C116.407 46.9868 115.931 20.9658 121.171 14.7189M121.171 14.7189C127.721 6.91034 149.448 -2.30147 150.943 6.74248C152.729 17.5544 112.239 17.1216 103.903 14.7189C95.5673 12.3163 102.117 3.1385 109.262 5.54115C114.978 7.46326 118.789 13.7178 121.171 14.7189Z" stroke="#43A35E" stroke-width="5" stroke-linecap="round" stroke-linejoin="round"/>
</svg>
